<svg width="14" height="15" viewBox="0 0 14 15" fill="none" xmlns="http://www.w3.org/2000/svg">
<path d="M7 14.3458C3.1339 14.3458 0 11.1345 0 7.17291C0 3.21131 3.1339 0 7 0C10.8661 0 14 3.21131 14 7.17291C14 11.1345 10.8661 14.3458 7 14.3458ZM7 12.9112C8.48521 12.9112 9.90959 12.3067 10.9598 11.2305C12.01 10.1544 12.6 8.69481 12.6 7.17291C12.6 5.65101 12.01 4.19145 10.9598 3.1153C9.90959 2.03915 8.48521 1.43458 7 1.43458C5.51479 1.43458 4.09041 2.03915 3.0402 3.1153C1.99 4.19145 1.4 5.65101 1.4 7.17291C1.4 8.69481 1.99 10.1544 3.0402 11.2305C4.09041 12.3067 5.51479 12.9112 7 12.9112ZM4.9 4.30375H9.1L10.85 6.81427L7 10.7594L3.15 6.81427L4.9 4.30375ZM5.621 5.73833L4.977 6.66364L7 8.73661L9.023 6.66364L8.379 5.73833H5.621Z" fill="#FF7A00"/>
</svg>
