<svg width="14" height="15" viewBox="0 0 14 15" fill="none" xmlns="http://www.w3.org/2000/svg">
<path d="M2.82063 4.27858L4.68926 6.10219L3.64737 7.11898L0 3.55949L3.64737 0L4.68926 1.01679L2.82063 2.8404H8.10526C9.66864 2.8404 11.168 3.44649 12.2735 4.52533C13.3789 5.60417 14 7.0674 14 8.59311C14 10.1188 13.3789 11.5821 12.2735 12.6609C11.168 13.7397 9.66864 14.3458 8.10526 14.3458H1.47368V12.9076H8.10526C9.2778 12.9076 10.4023 12.4531 11.2314 11.644C12.0605 10.8348 12.5263 9.7374 12.5263 8.59311C12.5263 7.44883 12.0605 6.35141 11.2314 5.54228C10.4023 4.73315 9.2778 4.27858 8.10526 4.27858H2.82063Z" fill="#FF7A00"/>
</svg>
