<svg width="14" height="13" viewBox="0 0 14 13" fill="none" xmlns="http://www.w3.org/2000/svg">
<path d="M5.06864 9.987C4.99299 10.6279 4.72832 11.2144 4.32325 11.6387C3.91818 12.0629 3.39991 12.2965 2.86364 12.2965C2.32736 12.2965 1.80909 12.0629 1.40402 11.6387C0.998954 11.2144 0.734287 10.6279 0.658636 9.987H0V0.768231C0 0.564483 0.0670452 0.369081 0.186387 0.22501C0.305728 0.0809385 0.467589 0 0.636364 0H9.54545C9.71423 0 9.87609 0.0809385 9.99543 0.22501C10.1148 0.369081 10.1818 0.564483 10.1818 0.768231V2.30469H12.0909L14 5.42064V9.987H12.705C12.6293 10.6279 12.3647 11.2144 11.9596 11.6387C11.5545 12.0629 11.0363 12.2965 10.5 12.2965C9.96372 12.2965 9.44545 12.0629 9.04039 11.6387C8.63532 11.2144 8.37065 10.6279 8.295 9.987H5.06864ZM8.90909 1.53646H1.27273V7.72072C1.52381 7.41127 1.83311 7.17964 2.1743 7.04554C2.51548 6.91143 2.87846 6.87882 3.23233 6.95049C3.5862 7.02215 3.92049 7.19597 4.20675 7.45714C4.49301 7.71832 4.72276 8.05912 4.87645 8.45054H8.48718C8.59409 8.17936 8.73727 7.93275 8.90909 7.72072V1.53646ZM10.1818 6.14585H12.7273V5.9269L11.4495 3.84116H10.1818V6.14585ZM10.5 10.7552C10.7532 10.7552 10.9961 10.6338 11.1752 10.4176C11.3543 10.2014 11.4549 9.90823 11.4549 9.6025C11.4549 9.29678 11.3543 9.00358 11.1752 8.7874C10.9961 8.57122 10.7532 8.44977 10.5 8.44977C10.2468 8.44977 10.0039 8.57122 9.82481 8.7874C9.64574 9.00358 9.54514 9.29678 9.54514 9.6025C9.54514 9.90823 9.64574 10.2014 9.82481 10.4176C10.0039 10.6338 10.2468 10.7552 10.5 10.7552ZM3.81818 9.60289C3.81818 9.45156 3.79349 9.30171 3.74552 9.1619C3.69755 9.02209 3.62724 8.89506 3.5386 8.78806C3.44996 8.68105 3.34474 8.59617 3.22892 8.53826C3.11311 8.48035 2.98899 8.45054 2.86364 8.45054C2.73828 8.45054 2.61416 8.48035 2.49835 8.53826C2.38254 8.59617 2.27731 8.68105 2.18867 8.78806C2.10003 8.89506 2.02972 9.02209 1.98175 9.1619C1.93378 9.30171 1.90909 9.45156 1.90909 9.60289C1.90909 9.90851 2.00966 10.2016 2.18867 10.4177C2.36768 10.6338 2.61048 10.7552 2.86364 10.7552C3.1168 10.7552 3.35959 10.6338 3.5386 10.4177C3.71761 10.2016 3.81818 9.90851 3.81818 9.60289Z" fill="#FF7A00"/>
</svg>
